<svg width="182" height="347" viewBox="0 0 182 347" fill="none" xmlns="http://www.w3.org/2000/svg">
<path d="M141.138 123.246C141.1 118.605 138.724 115.002 136.238 112.562C146.532 101.459 152.839 86.5422 152.839 70.1449C152.839 35.8991 125.334 8 91.2356 8C57.1373 8 29.6311 35.899 29.6311 70.1449C29.6311 86.4141 35.8401 101.226 45.9916 112.302C45.042 113.145 44.1958 114.079 43.4777 115.115C41.7787 117.566 40.9017 120.47 41.14 123.539C41.3687 126.485 42.5743 128.985 44.0003 130.934C46.751 134.693 51.0629 137.457 55.4604 139.37C58.4611 140.675 61.8294 141.728 65.4247 142.461C65.4266 143.21 65.4256 144.034 65.4244 144.957C65.4236 145.59 65.4228 146.269 65.4228 147.002C65.4228 148.871 64.7912 152.447 63.3159 157.674C61.9006 162.689 59.9007 168.578 57.6055 174.765C53.5868 185.599 48.7799 197.033 44.9373 205.72C43.7572 206.067 42.3782 206.511 40.8721 207.065C36.353 208.73 30.2571 211.55 24.9976 216.107L24.9973 216.108C19.741 220.662 15.9544 227.415 17.625 235.249C18.6158 239.894 21.3258 243.872 25.1271 247.211C15.4696 260.828 11.1619 275.019 9.3128 286.27C8.22589 292.884 7.97623 298.548 8.00172 302.598C8.01448 304.626 8.09633 306.26 8.17883 307.417C8.2201 307.996 8.26161 308.457 8.29488 308.789C8.31151 308.956 8.3261 309.09 8.33758 309.191C8.34333 309.241 8.34829 309.284 8.35235 309.317L8.35775 309.362L8.3599 309.379L8.36084 309.387C8.36127 309.39 8.36168 309.393 16.2982 308.388L8.36168 309.393L8.49165 310.419L8.8781 311.378C11.36 317.537 16.4246 322.078 22.0379 325.423C27.7234 328.811 34.7011 331.413 42.2349 333.392C57.323 337.354 75.8865 339.135 93.9419 338.992C111.984 338.849 130.087 336.781 144.238 332.717C151.283 330.694 157.769 328.059 162.83 324.622C167.821 321.234 172.403 316.373 173.508 309.693L173.618 309.024L173.615 308.346C173.612 307.811 173.61 307.269 173.608 306.717C173.555 291.97 173.48 271.326 157.145 247.141C158.597 245.853 159.916 244.451 161.039 242.929C163.985 238.935 165.766 233.778 164.398 228.068C163.101 222.659 159.32 218.245 154.48 214.661C150.22 211.507 144.605 208.589 137.604 205.869C137.055 204.634 136.359 203.058 135.558 201.214C133.504 196.487 130.761 190.025 128 183.06C125.232 176.079 122.48 168.683 120.384 162.068C118.218 155.233 116.995 149.963 116.851 146.926C116.763 145.056 116.718 143.528 116.701 142.287C123.135 140.947 128.203 139.19 132.008 136.992C137.007 134.104 141.188 129.535 141.138 123.246Z" fill="white" stroke="black" stroke-width="16"/>
</svg>
